<svg xmlns="http://www.w3.org/2000/svg" viewBox="0 0 1100 920" font-family="ui-monospace, 'Cascadia Code', 'JetBrains Mono', monospace" font-size="11">
  <defs>
    <marker id="arrow" viewBox="0 0 10 6" refX="10" refY="3" markerWidth="8" markerHeight="6" orient="auto">
      <path d="M0,0 L10,3 L0,6 Z" fill="#475569"/>
    </marker>
    <marker id="arrow-blue" viewBox="0 0 10 6" refX="10" refY="3" markerWidth="8" markerHeight="6" orient="auto">
      <path d="M0,0 L10,3 L0,6 Z" fill="#3b82f6"/>
    </marker>
    <filter id="glow">
      <feGaussianBlur stdDeviation="2" result="blur"/>
      <feMerge><feMergeNode in="blur"/><feMergeNode in="SourceGraphic"/></feMerge>
    </filter>
  </defs>

  <!-- Background -->
  <rect width="1100" height="920" rx="8" fill="#0a0e17"/>

  <!-- Title -->
  <text x="550" y="32" text-anchor="middle" fill="#3b82f6" font-size="16" font-weight="bold">OUTPOST SIEM — SYSTEM ARCHITECTURE</text>
  <text x="550" y="48" text-anchor="middle" fill="#475569" font-size="10">4,157 lines C++ · 30 tests · 19 detection rules · Single binary</text>

  <!-- ═══ LOG SOURCES ═══ -->
  <rect x="30" y="65" width="1040" height="65" rx="6" fill="#111827" stroke="#1e3a5f" stroke-width="1"/>
  <text x="50" y="82" fill="#3b82f6" font-size="10" font-weight="bold">LOG SOURCES</text>

  <rect x="50" y="90" width="140" height="30" rx="4" fill="#1e293b" stroke="#f97316" stroke-width="1"/>
  <text x="120" y="109" text-anchor="middle" fill="#f97316" font-size="10">FortiGate</text>

  <rect x="210" y="90" width="140" height="30" rx="4" fill="#1e293b" stroke="#3b82f6" stroke-width="1"/>
  <text x="280" y="109" text-anchor="middle" fill="#3b82f6" font-size="10">Windows Events</text>

  <rect x="370" y="90" width="140" height="30" rx="4" fill="#1e293b" stroke="#a855f7" stroke-width="1"/>
  <text x="440" y="109" text-anchor="middle" fill="#a855f7" font-size="10">M365 / Entra ID</text>

  <rect x="530" y="90" width="140" height="30" rx="4" fill="#1e293b" stroke="#06b6d4" stroke-width="1"/>
  <text x="600" y="109" text-anchor="middle" fill="#06b6d4" font-size="10">Azure Activity</text>

  <rect x="690" y="90" width="140" height="30" rx="4" fill="#1e293b" stroke="#64748b" stroke-width="1"/>
  <text x="760" y="109" text-anchor="middle" fill="#64748b" font-size="10">Generic Syslog</text>

  <rect x="850" y="90" width="200" height="30" rx="4" fill="none" stroke="#1e293b" stroke-width="1" stroke-dasharray="4"/>
  <text x="950" y="109" text-anchor="middle" fill="#475569" font-size="9" font-style="italic">Meraki · Nutanix · Linux</text>

  <!-- ═══ Arrows: Sources → Ingestion ═══ -->
  <line x1="200" y1="120" x2="200" y2="160" stroke="#475569" stroke-width="1" marker-end="url(#arrow)"/>
  <line x1="360" y1="120" x2="310" y2="160" stroke="#475569" stroke-width="1" marker-end="url(#arrow)"/>
  <line x1="760" y1="120" x2="310" y2="160" stroke="#475569" stroke-width="1" marker-end="url(#arrow)"/>
  <line x1="440" y1="120" x2="680" y2="160" stroke="#475569" stroke-width="1" marker-end="url(#arrow)"/>
  <line x1="600" y1="120" x2="720" y2="160" stroke="#475569" stroke-width="1" marker-end="url(#arrow)"/>

  <text x="170" y="147" fill="#475569" font-size="8">syslog</text>
  <text x="620" y="147" fill="#475569" font-size="8">REST API</text>

  <!-- ═══ INGESTION LAYER ═══ -->
  <rect x="30" y="155" width="1040" height="75" rx="6" fill="#111827" stroke="#22c55e40" stroke-width="1"/>
  <text x="50" y="172" fill="#22c55e" font-size="10" font-weight="bold">INGESTION</text>

  <rect x="50" y="180" width="380" height="40" rx="4" fill="#1a2e1a" stroke="#22c55e" stroke-width="1"/>
  <text x="60" y="196" fill="#22c55e" font-size="11" font-weight="bold">SyslogListener</text>
  <text x="60" y="210" fill="#64748b" font-size="9">syslog_listener.h/cpp · UDP + TCP · poll()-based I/O · 293 lines</text>

  <rect x="450" y="180" width="380" height="40" rx="4" fill="#1a2e1a" stroke="#22c55e" stroke-width="1"/>
  <text x="460" y="196" fill="#22c55e" font-size="11" font-weight="bold">HttpPoller</text>
  <text x="460" y="210" fill="#64748b" font-size="9">http_poller.h/cpp · OAuth2 · M365 + Azure REST · 424 lines</text>

  <!-- Arrow: Ingestion → Ring Buffer -->
  <line x1="240" y1="220" x2="420" y2="260" stroke="#475569" stroke-width="1" marker-end="url(#arrow)"/>
  <line x1="640" y1="220" x2="580" y2="260" stroke="#475569" stroke-width="1" marker-end="url(#arrow)"/>

  <!-- ═══ RING BUFFER ═══ -->
  <rect x="350" y="250" width="300" height="45" rx="6" fill="#111827" stroke="#eab308" stroke-width="1.5" filter="url(#glow)"/>
  <text x="365" y="270" fill="#eab308" font-size="12" font-weight="bold">RingBuffer&lt;65536&gt;</text>
  <text x="365" y="285" fill="#64748b" font-size="9">ring_buffer.h · Lock-free MPSC · 8KB/slot · Heap-allocated · 141 lines</text>

  <!-- Arrow: Ring Buffer → Parsers -->
  <line x1="500" y1="295" x2="500" y2="320" stroke="#475569" stroke-width="1.5" marker-end="url(#arrow)"/>
  <text x="510" y="312" fill="#475569" font-size="8">try_pop()</text>

  <!-- ═══ PARSER PIPELINE ═══ -->
  <rect x="30" y="318" width="700" height="100" rx="6" fill="#111827" stroke="#a855f740" stroke-width="1"/>
  <text x="50" y="335" fill="#a855f7" font-size="10" font-weight="bold">PARSER PIPELINE</text>
  <text x="250" y="335" fill="#475569" font-size="9">parser.h interface · First match wins · Order matters</text>

  <rect x="50" y="345" width="120" height="30" rx="3" fill="#2d1f3d" stroke="#f97316" stroke-width="1"/>
  <text x="110" y="364" text-anchor="middle" fill="#f97316" font-size="9">FortiGate KV</text>

  <rect x="180" y="345" width="120" height="30" rx="3" fill="#2d1f3d" stroke="#3b82f6" stroke-width="1"/>
  <text x="240" y="364" text-anchor="middle" fill="#3b82f6" font-size="9">Windows XML</text>

  <rect x="310" y="345" width="120" height="30" rx="3" fill="#2d1f3d" stroke="#a855f7" stroke-width="1"/>
  <text x="370" y="364" text-anchor="middle" fill="#a855f7" font-size="9">M365 JSON</text>

  <rect x="440" y="345" width="120" height="30" rx="3" fill="#2d1f3d" stroke="#06b6d4" stroke-width="1"/>
  <text x="500" y="364" text-anchor="middle" fill="#06b6d4" font-size="9">Azure JSON</text>

  <rect x="570" y="345" width="140" height="30" rx="3" fill="#2d1f3d" stroke="#64748b" stroke-width="1"/>
  <text x="640" y="364" text-anchor="middle" fill="#64748b" font-size="9">Syslog (catch-all)</text>

  <text x="50" y="405" fill="#475569" font-size="9">198 lines</text>
  <text x="180" y="405" fill="#475569" font-size="9">364 lines</text>
  <text x="310" y="405" fill="#475569" font-size="9">247 lines</text>
  <text x="440" y="405" fill="#475569" font-size="9">200 lines</text>
  <text x="570" y="405" fill="#475569" font-size="9">180 lines</text>

  <!-- Arrow connectors between parsers -->
  <text x="148" y="364" fill="#475569" font-size="14">→</text>
  <text x="278" y="364" fill="#475569" font-size="14">→</text>
  <text x="408" y="364" fill="#475569" font-size="14">→</text>
  <text x="538" y="364" fill="#475569" font-size="14">→</text>

  <!-- ═══ COMMON EVENT SCHEMA ═══ -->
  <rect x="750" y="318" width="320" height="100" rx="6" fill="#111827" stroke="#f9731640" stroke-width="1"/>
  <text x="770" y="335" fill="#f97316" font-size="10" font-weight="bold">EVENT SCHEMA</text>
  <text x="770" y="352" fill="#64748b" font-size="9">common/event.h · 185 lines</text>
  <text x="770" y="367" fill="#e2e8f0" font-size="9">event_id · timestamp · source_type</text>
  <text x="770" y="380" fill="#e2e8f0" font-size="9">severity · category · action · outcome</text>
  <text x="770" y="393" fill="#e2e8f0" font-size="9">src_ip · dst_ip · user · raw</text>
  <text x="770" y="406" fill="#e2e8f0" font-size="9">metadata (JSON) — extensible</text>

  <!-- Arrow: Parsers → Event Schema -->
  <line x1="700" y1="370" x2="748" y2="370" stroke="#475569" stroke-width="1" marker-end="url(#arrow)"/>

  <!-- Arrows: Event → Storage + Rules -->
  <line x1="500" y1="418" x2="300" y2="470" stroke="#06b6d4" stroke-width="1.5" marker-end="url(#arrow-blue)"/>
  <line x1="500" y1="418" x2="750" y2="470" stroke="#ef4444" stroke-width="1.5" marker-end="url(#arrow)"/>

  <text x="340" y="445" fill="#06b6d4" font-size="8">insert(event)</text>
  <text x="620" y="445" fill="#ef4444" font-size="8">evaluate(event)</text>

  <!-- ═══ STORAGE ═══ -->
  <rect x="30" y="465" width="480" height="130" rx="6" fill="#111827" stroke="#06b6d440" stroke-width="1"/>
  <text x="50" y="482" fill="#06b6d4" font-size="10" font-weight="bold">STORAGE LAYER</text>

  <rect x="50" y="490" width="230" height="50" rx="4" fill="#1a2d3d" stroke="#06b6d4" stroke-width="1"/>
  <text x="60" y="508" fill="#06b6d4" font-size="11" font-weight="bold">StorageEngine</text>
  <text x="60" y="522" fill="#64748b" font-size="9">storage_engine.h/cpp</text>
  <text x="60" y="532" fill="#64748b" font-size="9">615 lines · Batched inserts · WAL</text>

  <rect x="300" y="490" width="190" height="50" rx="4" fill="#1a2d3d" stroke="#06b6d480" stroke-width="1"/>
  <text x="310" y="510" fill="#06b6d4" font-size="10" font-weight="bold">SQLite + FTS5</text>
  <text x="310" y="524" fill="#64748b" font-size="9">outpost-YYYY-MM-DD.db</text>
  <text x="310" y="534" fill="#64748b" font-size="9">Daily rotation · 90-day retention</text>

  <text x="50" y="565" fill="#64748b" font-size="9">query() · count_by_field() · top_values() · event_timeline()</text>
  <text x="50" y="578" fill="#64748b" font-size="9">insert_alert() · get_alerts() · query_by_id()</text>

  <!-- ═══ RULE ENGINE ═══ -->
  <rect x="540" y="465" width="530" height="130" rx="6" fill="#111827" stroke="#ef444440" stroke-width="1"/>
  <text x="560" y="482" fill="#ef4444" font-size="10" font-weight="bold">DETECTION ENGINE</text>

  <rect x="560" y="490" width="240" height="50" rx="4" fill="#3d1a1a" stroke="#ef4444" stroke-width="1"/>
  <text x="570" y="508" fill="#ef4444" font-size="11" font-weight="bold">RuleEngine</text>
  <text x="570" y="522" fill="#64748b" font-size="9">rule_engine.h/cpp · 388 lines</text>
  <text x="570" y="532" fill="#64748b" font-size="9">Sliding windows · Cooldown · Callbacks</text>

  <rect x="820" y="490" width="230" height="50" rx="4" fill="#3d1a1a" stroke="#ef444480" stroke-width="1"/>
  <text x="830" y="508" fill="#ef4444" font-size="10" font-weight="bold">YAML Rules</text>
  <text x="830" y="522" fill="#64748b" font-size="9">config/rules/*.yaml</text>
  <text x="830" y="532" fill="#64748b" font-size="9">19 rules · 4 files</text>

  <text x="560" y="560" fill="#e2e8f0" font-size="9">⬤ Threshold — N events in window, grouped by field</text>
  <text x="560" y="573" fill="#e2e8f0" font-size="9">⬤ Sequence — ordered multi-step patterns</text>
  <text x="560" y="586" fill="#e2e8f0" font-size="9">⬤ ValueList — field matches known-bad set</text>

  <!-- Arrow: Rules → Storage (alerts) -->
  <line x1="560" y1="540" x2="510" y2="540" stroke="#ef4444" stroke-width="1" stroke-dasharray="4" marker-end="url(#arrow)"/>
  <text x="515" y="536" fill="#ef4444" font-size="7">fire_alert()</text>

  <!-- Arrow: Storage → API -->
  <line x1="270" y1="595" x2="270" y2="640" stroke="#475569" stroke-width="1.5" marker-end="url(#arrow)"/>

  <!-- ═══ REST API ═══ -->
  <rect x="30" y="635" width="1040" height="110" rx="6" fill="#111827" stroke="#eab30840" stroke-width="1"/>
  <text x="50" y="655" fill="#eab308" font-size="10" font-weight="bold">REST API</text>
  <text x="160" y="655" fill="#475569" font-size="9">api/server.h/cpp · cpp-httplib :8080 · CORS enabled · 133 lines</text>

  <rect x="50" y="665" width="140" height="28" rx="3" fill="#2d2d1a" stroke="#eab308" stroke-width="1"/>
  <text x="120" y="683" text-anchor="middle" fill="#eab308" font-size="9">/api/health</text>

  <rect x="200" y="665" width="200" height="28" rx="3" fill="#2d2d1a" stroke="#eab308" stroke-width="1"/>
  <text x="300" y="683" text-anchor="middle" fill="#eab308" font-size="9">/api/events?q=&amp;start=&amp;end=</text>

  <rect x="410" y="665" width="140" height="28" rx="3" fill="#2d2d1a" stroke="#eab308" stroke-width="1"/>
  <text x="480" y="683" text-anchor="middle" fill="#eab308" font-size="9">/api/events/:id</text>

  <rect x="560" y="665" width="140" height="28" rx="3" fill="#2d2d1a" stroke="#eab308" stroke-width="1"/>
  <text x="630" y="683" text-anchor="middle" fill="#eab308" font-size="9">/api/stats</text>

  <rect x="50" y="700" width="170" height="28" rx="3" fill="#2d2d1a" stroke="#eab30880" stroke-width="1"/>
  <text x="135" y="718" text-anchor="middle" fill="#eab308" font-size="9">/api/stats/sources</text>

  <rect x="230" y="700" width="170" height="28" rx="3" fill="#2d2d1a" stroke="#eab30880" stroke-width="1"/>
  <text x="315" y="718" text-anchor="middle" fill="#eab308" font-size="9">/api/stats/severity</text>

  <rect x="410" y="700" width="170" height="28" rx="3" fill="#2d2d1a" stroke="#eab30880" stroke-width="1"/>
  <text x="495" y="718" text-anchor="middle" fill="#eab308" font-size="9">/api/stats/top-ips</text>

  <rect x="590" y="700" width="170" height="28" rx="3" fill="#2d2d1a" stroke="#eab30880" stroke-width="1"/>
  <text x="675" y="718" text-anchor="middle" fill="#eab308" font-size="9">/api/stats/timeline</text>

  <rect x="770" y="700" width="170" height="28" rx="3" fill="#2d2d1a" stroke="#eab30880" stroke-width="1"/>
  <text x="855" y="718" text-anchor="middle" fill="#eab308" font-size="9">/api/stats/top-users</text>

  <!-- Arrow: API → Frontend -->
  <line x1="550" y1="745" x2="550" y2="775" stroke="#475569" stroke-width="1.5" marker-end="url(#arrow)"/>
  <text x="558" y="765" fill="#475569" font-size="8">JSON</text>

  <!-- ═══ FRONTEND ═══ -->
  <rect x="30" y="770" width="1040" height="65" rx="6" fill="#111827" stroke="#22c55e40" stroke-width="1"/>
  <text x="50" y="790" fill="#22c55e" font-size="10" font-weight="bold">REACT FRONTEND</text>
  <text x="210" y="790" fill="#475569" font-size="9">outpost-dashboard.jsx · Tailwind · Recharts · lucide-react</text>

  <text x="50" y="815" fill="#e2e8f0" font-size="9">Dashboard: Stat cards · 24h timeline · Source/Severity/Category breakdowns · Top IPs/Users/Actions</text>
  <text x="50" y="828" fill="#e2e8f0" font-size="9">Events: Expandable table · FTS keyword search · Raw log viewer · Metadata JSON · Auto-refresh 5-10s</text>

  <!-- ═══ INFRASTRUCTURE BAR ═══ -->
  <rect x="30" y="855" width="1040" height="50" rx="6" fill="#111827" stroke="#64748b40" stroke-width="1"/>
  <text x="50" y="875" fill="#64748b" font-size="10" font-weight="bold">INFRASTRUCTURE</text>

  <text x="50" y="895" fill="#475569" font-size="9">main.cpp (194 lines) · Signal handling · Thread orchestration · Stats loop · Graceful shutdown</text>
  <text x="600" y="895" fill="#475569" font-size="9">spdlog Logger · UUID v4 · Date utils · CMake + FetchContent</text>
</svg>
